<?xml version="1.0" encoding="utf-8"?>
<!-- Generator: Adobe Illustrator 27.9.0, SVG Export Plug-In . SVG Version: 6.00 Build 0)  -->
<svg version="1.1" id="Capa_1" xmlns="http://www.w3.org/2000/svg" xmlns:xlink="http://www.w3.org/1999/xlink" x="0px" y="0px"
	 viewBox="0 0 1920 1080" style="enable-background:new 0 0 1920 1080;" xml:space="preserve">
<style type="text/css">
	.st0{fill:#67E9FE;}
	.st1{fill:#2F1873;}
	.st2{fill:#311571;}
	.st3{fill:#281575;}
	.st4{fill:#311374;}
	.st5{fill:#2A1A75;}
	.st6{fill:#7EC7EF;}
	.st7{fill:#331D6F;}
	.st8{fill:#2D1971;}
	.st9{fill:#8AC1F4;}
	.st10{fill:#271C7E;}
	.st11{fill:#1E1972;}
	.st12{fill:#FBFCFC;}
	.st13{fill:#36ACF0;}
	.st14{fill:#95CEF6;}
	.st15{fill:#96CBF6;}
	.st16{fill:#B8B3CF;}
	.st17{fill:#337AC3;}
	.st18{fill:#A3BDEE;}
	.st19{fill:#3678CA;}
	.st20{fill:#36ACEF;}
	.st21{fill:#2F7CC3;}
	.st22{fill:#360B77;}
	.st23{fill:#3976CA;}
	.st24{fill:#32155D;}
	.st25{fill:#BBB4D8;}
	.st26{fill:#351D69;}
	.st27{fill:#446EC0;}
	.st28{fill:#F1EDF6;}
</style>
<g>
	<g>
		<path class="st0" d="M647,227c208.5,0,417.21,0,626,0c0,208.6,0,417.23,0,626c-208.54,0-417.16,0-626,0
			C647,644.44,647,435.73,647,227z M1067.94,698.82c7.51-0.86,15.02-1.73,22.53-2.59c9.47-1.27,17.62-5.63,25.05-11.28
			c3.95-3.01,4.31-8.32,0.53-11.71c-4.97-4.46-10.65-8.13-16.03-12.14c-2.61-0.9-5.33-1.57-7.81-2.74
			c-10.36-4.89-21.34-7.5-32.66-7.29c-12.35,0.23-24.67,1.73-37.02,2.42c-1.64,0.09-3.86-0.83-4.93-2.06
			c-2.49-2.86-4.45-6.19-6.62-9.33c-6.11-12.48-11.77-25.09-11.81-39.72c8.73-0.3,13.71-5.33,17.91-11.67
			c6.27-9.46,8.8-20.11,6.38-30.84c-1.75-7.74,1.06-11.76,6.5-15.58c0.68-0.48,1.31-1.02,1.93-1.58
			c10.35-9.31,20.69-18.63,31.04-27.95c16.47-17,29.08-36.56,38.31-58.31c7.26-17.11,11.28-34.73,7.7-53.42
			c-1.04-3.71-1.43-7.78-3.24-11.07c-7.06-12.84-20.2-16.73-32.93-18.45c-13.7-1.85-27.84-0.41-41.79-0.41
			c-11.02,0.65-22.08,0.9-33.03,2.1c-7.57,0.83-15.01,2.89-22.47,4.57c-1.56,0.35-2.92,1.5-4.43,2.17c-0.87,0.39-1.85,0.8-2.77,0.76
			c-5.49-0.25-10.3,1.53-15.05,4.15c-2.35,1.29-5.3,1.46-7.94,2.27c-3.39,1.04-6.88,1.9-10.06,3.4c-3.97,1.87-7.6,4.44-11.52,6.45
			c-3.82,1.96-8.27,2.99-11.57,5.55c-2.3,1.79-3.51,3.14-6.2,1.14c-0.33-0.24-2.07,1.09-2.91,1.94c-1.71,1.72-3.03,3.9-4.92,5.36
			c-3.44,2.66-7.63,4.48-10.71,7.47c-6.07,5.88-11.59,12.33-17.64,18.86c-3.08-4.32-7.61-5.74-11.16-8.65
			c-5.81-4.76-10.17-10.36-14.85-15.92c-0.73-0.87-2.88-0.56-4.37-0.79c0,0-0.26-0.31-0.26-0.31c1.42-5.67-3.78-8.68-6.64-9.56
			c-7.87-2.43-15.93-0.28-23.3,3.48c-0.73,0.37-1.14,1.76-1.35,2.74c-1.27,6.09-1.46,12.62-3.87,18.21
			c-3.53,8.21,1.05,14.91,2.19,22.25c0.03,0.17,0.58,0.26,0.88,0.39c3.84,10.76,7.68,21.53,11.54,32.36
			c-5.98,4.4-13.1,8.8-19.16,14.36c-6.06,5.57-11.06,12.31-16.52,18.53c-3.26,3.37-5.58,7.11-3.3,11.89
			c1.8,3.78,4.88,5.65,9.24,4.74l0.09,0c15.48,1.79,30.95,3.61,46.43,5.37c3.82,0.43,4.75,2.63,5.44,6.24
			c2.11,11.06,3.97,22.31,7.6,32.91c6.98,20.39,18.92,37.71,34.5,52.84c11.41,11.09,23.66,20.73,37.38,28.63
			c22.33,13.54,46.15,23.57,71.63,29.28c6.26,1.41,9.51,3.18,10.84,10.4c3.76,20.48,15.84,36.68,29.92,51.37
			c4.78,4.99,12.27,2.17,14.3-4.96c5.29-15.82,4.03-32.1,2.35-48.42C1056.2,697.48,1062.07,698.15,1067.94,698.82z"/>
		<path class="st1" d="M1108.94,403.03c3.58,18.69-0.44,36.31-7.7,53.43c-9.22,21.75-21.83,41.31-38.31,58.31
			c-0.42-1.94-0.83-3.89-1.25-5.83c1.38-2.19,2.55-4.55,4.17-6.54c14.12-17.44,26.13-36.08,33.25-57.55
			c2.17-6.55,4.9-13.02,3.05-20.18c0.65-1.21,1.92-2.46,1.84-3.61c-0.43-6.02-1.21-12.01-1.87-18.01
			c-2.99-9.88-9.72-16.28-19.45-18.81c-7.81-2.04-15.96-2.77-23.95-4.08c0.92-0.18,1.85-0.36,2.77-0.55
			c-8.86-0.58-17.6-0.63-26.34-0.53c-1.38,0.02-2.75,0.7-4.12,1.08c-2.48,0.3-4.94,0.7-7.43,0.88c-20.5,1.46-40.65,4.87-60.23,11.15
			c-20.74,6.65-41,14.4-58.45,27.97c-2.81,2.25-5.3,5.19-8.48,6.63c-10.75,4.88-17,14.37-25.19,22.75c1.59,0.74,2.59,1.2,3.58,1.66
			c0.64,0.61,1.28,1.22,1.92,1.84l0.21,0.21c2.07,5.01-2.05,3.03-3.54,2.76c-8.65-1.56-14.31-7.51-19.53-13.98
			c-1.98-2.36-3.96-4.71-5.94-7.07c0,0,0.05,0.03,0.05,0.03c-5.02-5.98-10.04-11.96-15.07-17.95c-4.07-3.43-8.14-6.86-14.04-4.24
			c0.43-1.06,0.85-2.13,1.28-3.19c-0.27-0.25-0.55-0.5-0.82-0.75c-1.36,0.94-2.71,1.88-4.88,3.38c2,0.53,2.88,0.76,3.75,0.99
			c-1.1,1.32-2.2,2.64-3.29,3.96c-1.24-1.51-2.48-3.03-3.72-4.54c2.29-4.15,5.7-5.62,10.52-5.92c7.14-0.44,12.36,2.73,17.41,6.91
			c0,0,0.26,0.31,0.26,0.31c8.86,10.64,17.72,21.28,25.75,30.92c6.91-6.33,13.11-12.24,19.56-17.86
			c25.74-22.46,56.25-35.64,88.89-43.76c16.85-4.19,34.35-5.77,51.56-8.53c1.97-0.2,3.93-0.4,5.9-0.6l0.09,0.13
			c4.28,0.27,8.56,0.7,12.84,0.76c7.28,0.1,14.59-0.46,21.84,0.02C1085.34,376.26,1102.27,381.86,1108.94,403.03z"/>
		<path class="st2" d="M1061.68,508.93c0.42,1.94,0.83,3.89,1.25,5.83c-10.35,9.32-20.69,18.64-31.04,27.95
			c-0.62,0.56-1.25,1.1-1.93,1.58c-5.45,3.82-8.25,7.84-6.5,15.58c2.42,10.73-0.11,21.38-6.38,30.84
			c-4.2,6.34-9.18,11.37-17.91,11.67c0.05,14.62,5.71,27.23,11.81,39.72c-0.17,1.45-0.35,2.89-0.54,4.48
			c-1.57-0.8-2.78-1.42-3.99-2.04l-0.04-0.06c-0.88-5.27-2.63-10.06-7.15-13.39c-1.79-5.33-3.59-10.65-5.38-15.98
			c-0.16-0.79-0.32-1.57-0.49-2.36c0.08-0.57,0.16-1.14,0.24-1.72c0.43-7.56-0.13-8.16-7.04-10.37
			c-12.6-4.03-23.92-9.86-29.93-22.65c-0.14-10.12,2.24-13.54,12.18-15.97c6.96-1.7,14.07-2.85,21.15-3.99
			c12.56-2.02,23.58-6.29,33.08-15.62C1035.21,530.51,1048.75,520.03,1061.68,508.93z M1017.58,560.8
			c-0.27-1.51-0.54-3.01-0.69-3.82c-8.03,2.27-15.41,4.62-22.92,6.4c-8.53,2.01-17.23,3.29-25.75,5.32
			c-3.32,0.79-6.94,2.34-5.12,7.22c0.4,1.08,0.68,2.24,1.23,3.24c5.28,9.51,26.84,19.15,37.45,16.65c1.86-0.44,3.94-1.34,5.21-2.69
			C1015.49,584.01,1019.6,573.38,1017.58,560.8z"/>
		<path class="st3" d="M920.29,659c-13.72-7.9-25.97-17.54-37.38-28.63c-15.58-15.13-27.52-32.45-34.5-52.84
			c-3.63-10.6-5.48-21.85-7.6-32.91c-0.69-3.61-1.62-5.81-5.44-6.24c-15.48-1.76-30.95-3.57-46.43-5.37
			c1.65-0.57,3.38-1.79,4.95-1.62c13.33,1.42,26.64,3.09,39.96,4.69c0.11,0.05,0.22,0.09,0.32,0.14c-0.09-0.06-0.18-0.13-0.27-0.19
			c-0.34-1.34-0.67-2.69-1.01-4.03c2.07,0.18,4.13,0.35,7.1,0.61c0-6.39-0.03-12.34,0.01-18.28c0.03-3.75,0.17-7.5,0.25-11.25
			l-0.28-0.34c-0.26-0.32-0.51-0.64-0.77-0.96c-3.69-2.78-7.38-5.56-11.06-8.33c-0.01-0.18-0.01-0.36,0.02-0.53
			c2.01,0.36,4.02,0.72,6.31,1.13c0.11-0.82,0.26-1.9,0.4-2.99c7.15,3.97,14.3,7.95,21.45,11.92c-1.09,5.63-6.37,1.54-9.29,4.18
			c-1.46,14.43-2.08,29.17,1.03,43.87c-0.03,0.5-0.15,1.01-0.07,1.48c5.71,31.58,20.86,57.85,45.06,78.8
			c8.01,6.94,16.68,13.12,25.05,19.65c-0.86,0.26-1.72,0.51-3.99,1.19c3.59,2.44,6.19,4.2,8.78,5.96
			C922.03,658.4,921.16,658.7,920.29,659z M842.9,500c-1.61-3.6-1.72-3.63-5.48-1.45c1.97,0.55,3.69,1.03,5.41,1.52
			c0,4.7,0,9.41,0,14.11c0.58,0.04,1.16,0.09,1.73,0.13c0.76-4.73-1.2-10.73,6.78-12.49C847.66,501.03,845.28,500.52,842.9,500z
			 M845.13,538.58c-0.89-2.21-1.79-4.41-3.17-7.83C840.87,535.03,839.24,538.08,845.13,538.58z"/>
		<path class="st4" d="M834.88,491.05c-0.15,1.09-0.29,2.17-0.4,2.99c-2.29-0.41-4.3-0.77-6.31-1.13c0,0,0.04-0.19,0.04-0.19
			c-0.55-0.53-1.09-1.05-1.64-1.58c-1.85-2.37-3.79-2.35-6.4-0.87c-14.01,7.96-25.18,18.91-34.24,32.11
			c-2.26,3.29-0.75,4.5,2.71,4.37c-0.03,0.18,0.03,0.34,0.16,0.46c1.52,0.61,3.04,1.7,4.58,1.73c7.2,0.18,14.41,0.06,21.62,0.05
			c5.97,1,11.93,2,17.9,3c0.34,1.34,0.67,2.69,1.01,4.03l-0.05,0.05c-13.32-1.6-26.62-3.27-39.96-4.69
			c-1.57-0.17-3.3,1.05-4.95,1.62c0,0-0.09,0-0.09,0c-0.67-0.47-1.28-1.07-2.01-1.38c-5.56-2.39-6.76-5.52-4.48-11.39
			c0.46-1.18,0.38-2.57,0.55-3.86c5.46-6.22,10.45-12.96,16.52-18.53c6.06-5.56,13.19-9.96,19.16-14.36
			c-3.86-10.83-7.7-21.59-11.54-32.36c-0.26-2.14-0.75-4.28-0.74-6.41c0.04-6.56,0.27-13.11,0.42-19.67
			c1.13-0.45,2.25-0.89,3.46-1.37c0.08,0.62,0.13,0.93,0.16,1.24c0.35,4.37,0.69,8.73,1.03,13.1c1.86,8.01,3.72,16.02,5.58,24.02
			c0.2,0.39,0.41,0.78,0.61,1.17l0.02,0.08c0.51,1.73,0.63,3.71,1.59,5.14C824.3,476.06,829.63,483.53,834.88,491.05z"/>
		<path class="st5" d="M920.29,659c0.87-0.3,1.74-0.6,2.61-0.9c1.34,0.01,2.67,0.03,4.01,0.04c0,0.3,0.01,0.6,0.02,0.91
			c5.46,5.74,12.45,8.46,19.99,10.1c4.92,4.15,10.67,6.28,17.01,6.95c1.36,0.66,2.72,1.32,4.08,1.99c0.29,0.01,0.58,0.02,0.87,0.03
			c8.21,5.75,18.07,6.47,27.33,9.04c3.68,1.02,7.18,2.66,10.77,4.02c0.29,2.78,0.25,5.64,0.94,8.31
			c4.54,17.64,14.55,32.1,26.81,45.17c3.86,4.11,5.16,3.75,7.58-1.58c1.51,0,3.01,0.01,4.52,0.01c-0.02,0.38-0.03,0.76-0.05,1.14
			c0,0-0.29,0.34-0.29,0.34l0.3,0.31l0.19,0.23c-2.03,7.13-9.52,9.95-14.3,4.96c-14.08-14.7-26.16-30.9-29.92-51.37
			c-1.33-7.23-4.58-9-10.84-10.4C966.44,682.57,942.62,672.54,920.29,659z"/>
		<path class="st6" d="M1025.15,374.68c-17.21,2.76-34.71,4.34-51.56,8.53c-32.65,8.12-63.16,21.31-88.89,43.76
			c-6.45,5.63-12.65,11.53-19.56,17.86c-8.03-9.64-16.89-20.28-25.75-30.92c1.49,0.24,3.63-0.08,4.37,0.8
			c4.68,5.56,9.04,11.16,14.85,15.92c3.55,2.9,8.07,4.33,11.16,8.65c6.05-6.53,11.57-12.98,17.64-18.86
			c3.08-2.99,7.26-4.81,10.71-7.47c1.89-1.46,3.21-3.64,4.92-5.36c0.84-0.85,2.59-2.18,2.91-1.94c2.69,2,3.9,0.65,6.2-1.14
			c3.3-2.56,7.75-3.6,11.57-5.55c3.91-2,7.55-4.58,11.52-6.45c3.18-1.5,6.68-2.36,10.06-3.4c2.64-0.81,5.59-0.97,7.94-2.27
			c4.75-2.62,9.56-4.4,15.05-4.15c0.91,0.04,1.9-0.37,2.77-0.76c1.5-0.67,2.87-1.82,4.43-2.17c7.46-1.68,14.9-3.74,22.47-4.57
			c10.96-1.2,22.02-1.45,33.03-2.1c0.06,0.37,0.11,0.73,0.17,1.1c0,0-0.09-0.13-0.09-0.13
			C1029.08,374.28,1027.12,374.48,1025.15,374.68z M866.42,439.01c-0.51,0.02-1.03,0.04-1.54,0.07c0.19,1.13,0.38,2.26,0.57,3.39
			c0.4-0.05,0.8-0.11,1.19-0.16C866.57,441.21,866.49,440.11,866.42,439.01z"/>
		<path class="st7" d="M1006.45,644.54c1.21,0.62,2.42,1.23,3.99,2.04c0.19-1.59,0.36-3.03,0.54-4.48c2.17,3.14,4.13,6.47,6.62,9.33
			c1.07,1.23,3.3,2.15,4.93,2.06c12.35-0.7,24.67-2.19,37.02-2.42c11.33-0.22,22.31,2.4,32.66,7.29c2.48,1.17,5.2,1.84,7.81,2.74
			c-1.67,0-3.34-0.01-5.01-0.01c-0.1-0.05-0.21-0.1-0.31-0.15c0.09,0.06,0.19,0.12,0.28,0.18c0.01,0.86,0.02,1.73,0.03,2.59
			c-4.68-1.7-9.35-3.4-14.03-5.1c-1.3-0.28-2.6-0.56-3.9-0.85c-3.7-0.6-7.4-1.21-11.1-1.81c-0.79-0.61-1.57-1.73-2.38-1.76
			c-4.96-0.17-9.92-0.16-14.88-0.04c-1.19,0.03-2.36,0.7-3.55,1.07c-6.3,0.84-12.62,1.62-18.9,2.57c-1.18,0.18-3.9-0.21-2.12,2.63
			c-0.48,1.04-0.96,2.08-1.44,3.13l-0.13-0.14c-0.67-0.6-1.35-1.19-2.02-1.79c0,0-0.14-0.13-0.14-0.13
			c-0.8-0.79-1.59-1.58-2.39-2.36C1014.19,654.26,1010.32,649.4,1006.45,644.54z"/>
		<path class="st8" d="M1095.01,663.7c-0.01-0.86-0.02-1.73-0.03-2.59l0.03-0.03c1.67,0,3.34,0.01,5.01,0.01
			c5.38,4.01,11.05,7.68,16.03,12.14c3.78,3.39,3.41,8.71-0.53,11.71c-7.43,5.66-15.58,10.02-25.05,11.28
			c0.13-1.41,0.27-2.82,0.41-4.22c6.72-3.29,13.44-6.59,20.15-9.89c4.01-2.63,3.26-5.37-0.09-7.74
			C1105.72,670.7,1100.33,667.25,1095.01,663.7z"/>
		<path class="st6" d="M806.74,425.05c-0.15,6.56-0.39,13.11-0.42,19.67c-0.01,2.14,0.48,4.27,0.74,6.41
			c-0.31-0.13-0.86-0.22-0.88-0.39c-1.15-7.34-5.72-14.04-2.19-22.25c2.4-5.59,2.6-12.12,3.87-18.21c0.21-0.99,0.61-2.37,1.35-2.74
			c7.37-3.76,15.43-5.91,23.3-3.48c2.86,0.88,8.06,3.89,6.64,9.56c-5.05-4.18-10.28-7.35-17.42-6.91c-4.82,0.3-8.23,1.77-10.52,5.92
			c0,0,0.02,0.09,0.02,0.09C809.72,416.83,808.23,420.94,806.74,425.05z"/>
		<path class="st9" d="M1031.14,374.21c-0.06-0.37-0.11-0.74-0.17-1.1c13.95,0,28.09-1.45,41.79,0.41
			c12.74,1.72,25.88,5.61,32.93,18.45c1.81,3.29,2.2,7.36,3.24,11.06c-6.67-21.17-23.59-26.77-43.11-28.04
			c-7.25-0.47-14.56,0.09-21.84-0.02C1039.7,374.91,1035.42,374.48,1031.14,374.21z"/>
		<path class="st10" d="M1046.77,744.24c0.02-0.38,0.03-0.76,0.05-1.14c0.04-0.69,0.08-1.38,0.13-2.06
			c0.03-0.22,0.05-0.45,0.06-0.67c0.65-3.1,1.31-6.19,1.96-9.29c0.01-2.64,0.02-5.28,0.04-7.92c-0.01-5.36-0.01-10.73-0.02-16.09
			c-0.31-1.9-1-3.85-0.82-5.7c0.2-2.14,1.18-4.2,1.82-6.3c1.03,0.01,2.05,0.02,3.08,0.04c0.3,0,0.59,0.01,0.89,0.01
			c2.38,0.66,4.75,1.32,7.13,1.98c0.63,0.01,1.26,0.01,1.89,0.02c1.66,0.57,3.32,1.14,4.98,1.71c-5.87-0.67-11.74-1.34-18.62-2.13
			c1.68,16.32,2.94,32.6-2.35,48.42c0,0-0.19-0.23-0.19-0.22C1046.82,744.67,1046.82,744.45,1046.77,744.24z"/>
		<path class="st11" d="M1061.07,697.08c-2.38-0.66-4.75-1.32-7.13-1.98c1.03-0.72,2.07-1.43,3.1-2.15c1.77,0.22,3.56,0.7,5.32,0.62
			c9.51-0.45,19.01-1.03,28.51-1.57c-0.14,1.41-0.27,2.82-0.41,4.22c-7.51,0.86-15.02,1.73-22.53,2.59
			c-1.66-0.57-3.32-1.14-4.98-1.71c6.63,0,13.25,0,19.88,0c0-0.45-0.01-0.9-0.01-1.36c-7.05,0-14.1-0.01-21.15,0.06
			C1061.47,695.81,1061.28,696.64,1061.07,697.08z"/>
		<path class="st3" d="M782.92,516.39c-0.17,1.29-0.09,2.68-0.55,3.86c-2.28,5.87-1.08,9,4.48,11.39c0.73,0.31,1.34,0.91,2.01,1.38
			c-4.35,0.91-7.43-0.96-9.24-4.74C777.34,523.5,779.66,519.76,782.92,516.39z"/>
		<path class="st12" d="M1006.45,644.54c3.87,4.86,7.74,9.72,11.6,14.58c0.8,0.79,1.59,1.58,2.39,2.36c0,0,0.14,0.13,0.14,0.13
			c0.67,0.6,1.35,1.19,2.02,1.79c0,0,0.13,0.14,0.13,0.14c2.06,1.78,3.97,3.82,6.25,5.26c1.52,0.95,3.57,1.04,5.39,1.52
			c0.89,1.46,1.78,2.92,2.67,4.38l0.22,0.34c0.18,0.18,0.32,0.39,0.42,0.63c0.2,0.52,0.4,1.03,0.6,1.55
			c0.11,0.66,0.22,1.33,0.33,1.99c-1.38,0.44-3.02,1.59-4.09,1.2c-23.24-8.47-46.41-17.13-69.61-25.7
			c-1.66-0.62-3.45-0.91-5.18-1.35l-0.02-0.03c-1.22-0.77-2.43-1.53-3.65-2.3c-4.66-3.35-9.33-6.7-13.99-10.06
			c-0.86-0.64-1.72-1.27-2.58-1.91c-0.85-0.85-1.7-1.7-2.55-2.55c-1.34-1.59-2.64-3.2-4.02-4.75
			c-23.85-26.96-31.99-58.55-26.91-93.68c1.36-9.43,4.71-18.57,7.15-27.84c2.38-1.58,4.76-3.17,6.92-4.61
			c-0.64-0.6-1.73-1.63-2.83-2.66c2.14-3.99,4.28-7.98,6.41-11.96c3.28-0.49,5.82-1.5,4.01-5.62c3.43-3.87,6.86-7.75,10.29-11.62
			c1.32-1.54,6.23,0.46,4.27-4.32c8.93-6.43,17.87-12.87,26.8-19.3c5.15,2.66,10.47,2.5,15.87,0.92c5.67-0.69,8.43-5.06,11.14-9.21
			c1.84-2.82,3.04-6.06,4.52-9.12c6.01-2.27,12.02-4.55,18.03-6.8c19.71-7.38,39.69-13.6,61.02-13.97
			c10-0.17,18.51,2.24,22.53,12.67c1.86,7.16-0.87,13.63-3.05,20.18c-7.12,21.47-19.12,40.12-33.25,57.55
			c-1.62,2-2.79,4.35-4.17,6.54c-12.93,11.1-26.48,21.58-38.61,33.49c-9.5,9.34-20.52,13.6-33.08,15.62
			c-7.08,1.14-14.19,2.29-21.15,3.99c-9.94,2.43-12.32,5.85-12.18,15.97c-2.96,4.92-2.04,9.77,2.78,15.17
			c9.16,10.25,20.96,15.41,34.19,17.85c-0.08,0.57-0.16,1.14-0.24,1.71c0.16,0.79,0.32,1.57,0.49,2.36
			c1.79,5.33,3.59,10.65,5.38,15.98c2.38,4.46,4.76,8.93,7.15,13.39L1006.45,644.54z M1025.78,451.41
			c-0.19,6.45-0.5,6.23-3.95,11.09c-1.85,2.59-2.41,6.1-3.55,9.2c3.23,0.37,6.59,1.46,9.66,0.92c3.26-0.58,5.26-0.3,7.81,2.07
			c9.89,9.21,30.04,7.14,37.78-4.78c-3.81,1.17-6.58,1.78-9.15,2.85c-14.49,5.98-25.22,2.13-32.41-11.82
			c-1.18-2.29-1.95-4.79-3.23-7.01C1028.12,452.86,1026.78,452.23,1025.78,451.41z"/>
		<path class="st13" d="M969.04,450.16c-8.93,6.43-17.87,12.87-26.8,19.3c-8.58-1.01-12.85-6.71-15.27-14.25
			c-1.21-3.78-2.06-7.68-3.28-12.33c-4.91,15.08-0.17,24.79,14.27,30.91c-3.43,3.87-6.86,7.75-10.29,11.62
			c-1.66-0.11-3.94,0.43-4.88-0.45c-3.56-3.32-7.6-6.63-9.74-10.83c-2.51-4.91-3.21-10.74-4.86-16.73c-2.19,6.62-2,12.78-0.26,18.97
			c2.27,8.06,8.58,11.81,15.73,14.65c-2.14,3.99-4.28,7.98-6.41,11.97c-12.53-2.36-15.86-12.75-19.95-22.87
			c-0.9,1.72-1.66,3.4-1.53,5.01c0.78,9.56,4.54,17.19,14.18,20.77c2,0.74,4.44,1.22,3.2,4.36c-2.44,9.27-5.78,18.41-7.15,27.84
			c-5.08,35.13,3.07,66.73,26.91,93.68c1.37,1.55,2.68,3.17,4.02,4.75c0.85,0.85,1.7,1.7,2.55,2.55c0.86,0.64,1.72,1.27,2.58,1.91
			c-2.08-0.53-4.52-0.54-6.18-1.69c-12.72-8.76-25.63-17.3-37.81-26.77c-12.64-9.83-23.62-21.47-32.52-34.91
			c-5.86-8.85-11.67-17.73-17.5-26.6c-3.11-14.69-2.49-29.44-1.03-43.87c2.92-2.64,8.21,1.45,9.29-4.18
			c3.23-5.88,0.65-12.77-6.56-16.87c-3.45-1.96-7.51-3.02-10.64-5.36c-7.39-5.53-14.38-11.59-21.53-17.43c0,0-0.02-0.08-0.02-0.08
			c-0.2-0.39-0.41-0.78-0.61-1.17c-1.86-8.01-3.72-16.02-5.58-24.02c0.4-1.03,0.8-2.06,1.19-3.08c2.73-5.06,5.46-10.12,8.19-15.18
			c0.37-0.29,0.75-0.57,1.12-0.86c2.62-0.06,5.24-0.13,7.86-0.19c0.69,0.13,1.38,0.26,2.06,0.39c4.51,4.95,9,9.93,13.58,14.81
			c0.58,0.62,1.71,0.72,2.59,1.06c0,0-0.05-0.03-0.05-0.03c1.72,2.66,3.44,5.33,5.16,7.99c3.06,3.41,5.86,7.12,9.25,10.17
			c3.85,3.46,8.73,4.53,13.88,3.68c3.02-0.5,3.79-1.69,0.73-3.55c0,0-0.21-0.21-0.21-0.21c-0.15-1.35-0.29-2.7-0.44-4.05
			c1.08-1.25,2-2.68,3.25-3.73c8.82-7.39,17.71-14.71,26.57-22.04c1.07-0.42,2.23-0.68,3.19-1.27
			c20.12-12.46,41.95-20.9,64.72-26.81c30.35-7.88,61.31-10.31,92.55-7.93c11.26,0.86,22.59,2.66,31.05,11.59
			c1.42,1.5,2.98,2.85,4.48,4.27c0.66,6,1.44,11.99,1.87,18.01c0.08,1.15-1.19,2.4-1.84,3.61c-4.02-10.42-12.52-12.83-22.53-12.66
			c-21.33,0.36-41.3,6.58-61.02,13.97c-6.02,2.25-12.02,4.53-18.03,6.8c-0.23-0.56-0.45-1.12-0.68-1.68
			c-0.51-5.85,0.22-12.18-1.79-17.46c-4.66-12.19-18.18-14.58-27.77-5.71C958.49,418.83,957.95,436.78,969.04,450.16z"/>
		<path class="st14" d="M1102.12,403.03c-1.5-1.42-3.07-2.77-4.48-4.27c-8.46-8.93-19.79-10.73-31.05-11.59
			c-31.23-2.37-62.2,0.06-92.55,7.93c-22.77,5.91-44.61,14.35-64.72,26.81c-0.96,0.59-2.12,0.86-3.19,1.27
			c-0.41-1.02-0.81-2.03-1.22-3.05c17.45-13.56,37.72-21.32,58.45-27.97c19.58-6.28,39.73-9.69,60.23-11.15
			c2.48-0.18,4.95-0.58,7.43-0.88c9.23,0,18.46,0,27.7-0.01c8,1.31,16.15,2.04,23.95,4.08
			C1092.4,386.75,1099.13,393.14,1102.12,403.03z"/>
		<path class="st15" d="M904.91,420.14c0.41,1.02,0.81,2.03,1.22,3.05c-8.86,7.34-17.75,14.65-26.57,22.05
			c-1.25,1.05-2.18,2.48-3.25,3.73c-0.49,0.74-0.99,1.48-1.49,2.21c-0.99-0.46-1.99-0.92-3.58-1.66
			c8.19-8.37,14.44-17.87,25.19-22.75C899.61,425.33,902.1,422.39,904.91,420.14z"/>
		<path class="st14" d="M821.89,418.9c-0.37,0.29-0.75,0.57-1.12,0.86c-2.03,2.47-4.07,4.93-6.07,7.42
			c-0.95,1.18-1.81,2.43-2.71,3.64c0.67-3.9,1.33-7.8,2-11.71c0,0-0.05,0.03-0.05,0.03c0.2-0.34,0.41-0.68,0.61-1.02
			c0.13-0.32,0.26-0.63,0.38-0.95c1.1-1.32,2.2-2.64,3.29-3.96c0.32,0,0.54-0.14,0.67-0.43c5.9-2.62,9.97,0.81,14.04,4.24
			c-0.37,0.69-0.74,1.38-1.11,2.08c-0.69-0.13-1.38-0.26-2.06-0.39C827.1,417.25,824.45,416.28,821.89,418.9z"/>
		<path class="st6" d="M876.96,453.23c3.07,1.86,2.3,3.06-0.73,3.55c-5.15,0.85-10.03-0.23-13.88-3.68
			c-3.39-3.04-6.19-6.75-9.25-10.16c0.26-0.31,0.52-0.61,0.78-0.92c5.22,6.47,10.88,12.42,19.53,13.98
			C874.91,456.26,879.03,458.24,876.96,453.23z"/>
		<path class="st9" d="M831.82,419.1c0.37-0.69,0.74-1.38,1.11-2.08c5.02,5.98,10.04,11.96,15.07,17.95
			c-0.88-0.34-2.01-0.44-2.59-1.06C840.81,429.02,836.33,424.04,831.82,419.1z"/>
		<path class="st11" d="M1058.71,380.14c-9.23,0-18.47,0-27.7,0.01c1.37-0.38,2.74-1.06,4.12-1.08c8.74-0.1,17.48-0.05,26.34,0.53
			C1060.56,379.77,1059.64,379.95,1058.71,380.14z"/>
		<path class="st9" d="M853.88,442.01c-0.26,0.31-0.52,0.62-0.78,0.92c-1.72-2.67-3.44-5.33-5.16-7.99
			C849.92,437.3,851.9,439.66,853.88,442.01z"/>
		<path class="st4" d="M814.92,417.17c-0.13,0.32-0.26,0.63-0.38,0.95c-0.2,0.34-0.41,0.68-0.61,1.02c0,0,0.05-0.03,0.05-0.03
			c-5.46-0.17-0.91-4.67-2.76-6.4c0,0-0.01-0.09-0.02-0.09C812.44,414.14,813.68,415.66,814.92,417.17z"/>
		<path class="st4" d="M818.89,412.78c-0.13,0.29-0.35,0.43-0.67,0.43c-0.88-0.23-1.75-0.46-3.76-0.99c2.17-1.5,3.53-2.44,4.88-3.38
			c0.27,0.25,0.55,0.5,0.82,0.75C819.74,410.66,819.31,411.72,818.89,412.78z"/>
		<path class="st6" d="M874.82,451.18c0.5-0.74,0.99-1.48,1.49-2.21c0.14,1.35,0.29,2.7,0.44,4.05
			C876.1,452.4,875.46,451.79,874.82,451.18z"/>
		<path class="st9" d="M1025.15,374.68c1.97-0.2,3.93-0.4,5.9-0.6C1029.08,374.28,1027.12,374.48,1025.15,374.68z"/>
		<path class="st16" d="M993.63,611.03c-13.23-2.44-25.03-7.61-34.19-17.85c-4.83-5.4-5.75-10.26-2.78-15.17
			c6.01,12.79,17.34,18.62,29.93,22.65C993.5,602.87,994.06,603.47,993.63,611.03z"/>
		<path class="st17" d="M1017.58,560.8c2.02,12.58-2.09,23.21-10.58,32.31c-1.26,1.35-3.35,2.25-5.21,2.69
			c-10.62,2.51-32.17-7.14-37.45-16.65c-0.56-1-0.83-2.15-1.23-3.24c0.57-0.04,1.15-0.08,1.72-0.12
			c7.2,7.49,16.43,11.17,26.27,13.11c7.14,1.41,13.92-0.13,18.81-6.32c5.1-6.46,8.45-13.47,6.92-22.02
			C1017.11,560.54,1017.36,560.61,1017.58,560.8z"/>
		<path class="st18" d="M964.82,575.79c-0.57,0.04-1.15,0.08-1.72,0.12c-1.82-4.89,1.8-6.43,5.12-7.22
			c8.52-2.03,17.22-3.31,25.75-5.32c7.51-1.77,14.89-4.13,22.92-6.4c0.15,0.81,0.42,2.32,0.69,3.83c-0.22-0.18-0.47-0.26-0.75-0.22
			c-2.26,0.5-4.52,1-6.78,1.5c-4.63,0.98-9.25,1.96-13.88,2.94c-9.6,2.03-19.21,3.98-28.77,6.19c-0.98,0.23-1.63,1.93-2.43,2.95
			C964.92,574.69,964.87,575.24,964.82,575.79z"/>
		<path class="st7" d="M1006.41,644.48c-2.38-4.46-4.76-8.93-7.15-13.39C1003.78,634.42,1005.53,639.21,1006.41,644.48z"/>
		<path class="st16" d="M993.88,615.11c-0.16-0.79-0.32-1.57-0.49-2.36C993.56,613.54,993.72,614.32,993.88,615.11z"/>
		<path class="st19" d="M848.07,551.02c5.83,8.87,11.64,17.75,17.5,26.6c8.9,13.44,19.88,25.08,32.52,34.91
			c12.18,9.47,25.09,18.01,37.81,26.77c1.66,1.14,4.1,1.15,6.18,1.69c4.66,3.35,9.33,6.7,13.99,10.06c1.22,0.76,2.43,1.53,3.65,2.3
			c0,0,0.02,0.03,0.02,0.02c2.45,2.1,4.91,4.2,7.36,6.31c0.83,3.45,10.37,9.33,15.12,9.32c0.27,0.22,0.55,0.44,0.82,0.66
			c0.67,0.46,1.33,0.92,2,1.38l0-0.06c1.01,4.02,3.98,4.42,7.39,4.02l0.26-0.05l0.23,0.13c0.63,1.84,1.26,3.68,1.95,5.71
			c-3.79-0.56-7.81-1.16-11.82-1.75c-3.2-3.93-7.59-4.14-12.13-3.86l0,0.01c-0.91-3.07-1.95-5.7-6.19-4.32
			c-1.15,0.37-2.76-0.59-4.13-1.01c-4.97-1.53-9.92-3.08-14.88-4.63c-3.25-1.37-6.5-2.73-9.75-4.1c-3.68-2.01-7.35-4.03-11.03-6.04
			c-0.14-0.14-0.3-0.17-0.48-0.09c-0.49-0.26-0.99-0.52-1.48-0.79c-0.29-0.09-0.59-0.14-0.9-0.17c-1.05-0.91-2.1-1.82-3.15-2.73
			c-0.24-0.2-0.51-0.31-0.82-0.33c-8.37-6.53-17.04-12.71-25.05-19.65c-24.2-20.95-39.35-47.22-45.06-78.8
			C847.91,552.03,848.04,551.51,848.07,551.02z"/>
		<path class="st20" d="M828.15,493.44c3.69,2.78,7.38,5.56,11.07,8.33c0.26,0.32,0.51,0.64,0.77,0.96c0,0,0.28,0.34,0.28,0.34
			c-4.29,8.92-9.82,17.13-20.05,19.17c-10.3,2.05-20.94,2.45-31.42,3.57c0.4-1.21,0.51-2.64,1.24-3.61
			c8.42-11.28,18.81-20.36,31.14-27.13C823.18,493.97,825.8,493.96,828.15,493.44z"/>
		<path class="st21" d="M817.59,463.3c7.15,5.84,14.15,11.9,21.53,17.43c3.13,2.34,7.19,3.4,10.64,5.36c7.21,4.1,9.79,11,6.56,16.87
			c-7.15-3.97-14.3-7.95-21.45-11.92c-5.25-7.52-10.58-14.99-15.7-22.61C818.23,467.02,818.1,465.03,817.59,463.3z"/>
		<path class="st17" d="M788.78,525.82c10.49-1.12,21.12-1.52,31.42-3.57c10.24-2.04,15.77-10.25,20.05-19.17
			c-0.09,3.75-0.22,7.5-0.25,11.25c-0.04,5.95-0.01,11.9-0.01,18.28c-2.97-0.25-5.04-0.43-7.1-0.61c-5.97-1-11.93-2-17.9-3
			c-8.73-0.59-17.46-1.19-26.2-1.78c-0.13-0.13-0.19-0.28-0.16-0.46C788.63,526.44,788.68,526.12,788.78,525.82z"/>
		<path class="st15" d="M788.78,525.82c-0.11,0.31-0.15,0.62-0.14,0.95c-3.46,0.13-4.97-1.09-2.71-4.37
			c9.06-13.2,20.23-24.15,34.24-32.11c2.61-1.48,4.55-1.5,6.4,0.87c0.55,0.53,1.09,1.05,1.64,1.58c0,0-0.04,0.19-0.04,0.19
			c-0.03,0.18-0.04,0.36-0.02,0.53c-2.35,0.51-4.98,0.52-7,1.63c-12.33,6.77-22.72,15.85-31.14,27.13
			C789.3,523.18,789.18,524.6,788.78,525.82z"/>
		<path class="st22" d="M842.9,500c2.38,0.51,4.76,1.02,8.45,1.82c-7.99,1.76-6.03,7.76-6.78,12.49c-0.58-0.04-1.16-0.09-1.73-0.13
			c0-4.7,0-9.41,0-14.11L842.9,500z"/>
		<path class="st22" d="M922.07,654.01c0.3,0.03,0.6,0.09,0.9,0.17c0.49,0.26,0.99,0.52,1.48,0.79c0.18-0.08,0.34-0.05,0.48,0.09
			c0.66,1.03,1.33,2.06,1.99,3.08c-1.34-0.01-2.67-0.03-4.01-0.04c-2.59-1.76-5.19-3.52-8.78-5.96c2.27-0.68,3.13-0.93,3.99-1.19
			c0.31,0.02,0.58,0.13,0.82,0.33C919.97,652.19,921.02,653.1,922.07,654.01z"/>
		<path class="st22" d="M845.13,538.58c-5.89-0.49-4.26-3.55-3.17-7.83C843.34,534.16,844.24,536.37,845.13,538.58z"/>
		<path class="st4" d="M842.83,500.07c-1.72-0.48-3.44-0.96-5.41-1.52c3.76-2.18,3.87-2.14,5.48,1.45
			C842.9,500,842.83,500.07,842.83,500.07z"/>
		<path class="st17" d="M839.98,502.74c-0.26-0.32-0.52-0.64-0.77-0.96C839.47,502.1,839.73,502.42,839.98,502.74z"/>
		<path class="st4" d="M833.91,536.04c0.09,0.06,0.18,0.13,0.27,0.19c-0.11-0.05-0.22-0.09-0.32-0.14
			C833.86,536.09,833.91,536.04,833.91,536.04z"/>
		<path class="st1" d="M811.22,412.72c1.85,1.73-2.7,6.22,2.76,6.4c-0.67,3.9-1.33,7.8-2,11.71c0.2,1.37,0.4,2.74,0.59,4.11
			c-0.4,1.03-0.8,2.06-1.19,3.08c-0.34-4.37-0.68-8.73-1.03-13.1c-0.02-0.31-0.08-0.63-0.16-1.24c-1.2,0.48-2.33,0.92-3.46,1.37
			C808.23,420.94,809.72,416.83,811.22,412.72z"/>
		<path class="st10" d="M788.8,527.23c8.73,0.59,17.46,1.19,26.2,1.78c-7.21,0.01-14.42,0.13-21.62-0.05
			C791.84,528.92,790.33,527.83,788.8,527.23z"/>
		<path class="st3" d="M828.21,492.73c-0.55-0.53-1.09-1.05-1.64-1.58C827.12,491.68,827.67,492.2,828.21,492.73z"/>
		<path class="st21" d="M816.96,462.05c0.2,0.39,0.41,0.78,0.61,1.17C817.37,462.83,817.16,462.44,816.96,462.05z"/>
		<path class="st23" d="M1042.3,743.09c-2.42,5.33-3.72,5.69-7.58,1.58c-12.26-13.07-22.27-27.53-26.81-45.17
			c-0.69-2.67-0.64-5.54-0.94-8.31c0.63-0.01,1.26-0.01,1.89-0.02c5.97,0.22,11.95,0.45,17.92,0.67c0,0,0.29,0.39,0.29,0.39
			c-1.31,1.85-3.85,3.79-3.73,5.55c1.1,15.68,6.55,29.68,17.48,41.27c0.38,1.03,0.77,2.07,1.15,3.1
			C1042.08,742.46,1042.19,742.77,1042.3,743.09z"/>
		<path class="st22" d="M1008.86,691.16c-0.63,0.01-1.26,0.01-1.89,0.02c-3.58-1.36-7.09-3-10.77-4.02
			c-9.27-2.57-19.12-3.29-27.33-9.04c1.72-0.38,3.43-0.75,5.15-1.13L974,677c3.5,4.15,8.25,4.27,13.1,4.04
			c1.76,0.41,3.53,0.78,5.27,1.25c8.19,2.22,16.37,4.47,24.55,6.71c-0.14,0.69-0.24,1.97-0.41,1.98
			C1013.97,691.15,1011.41,691.13,1008.86,691.16z"/>
		<path class="st3" d="M963.92,676.1c-6.34-0.67-12.09-2.81-17.01-6.95c-0.28-1.03-0.57-2.06-0.85-3.09
			c7.32,2.98,14.64,5.95,21.96,8.93l-0.12,0.18C966.57,675.48,965.24,675.79,963.92,676.1z"/>
		<path class="st22" d="M946.06,666.05c0.28,1.03,0.57,2.06,0.85,3.09c-7.54-1.64-14.52-4.36-19.99-10.1
			c3.01,0.68,6.01,1.37,9.02,2.05c3.25,1.37,6.5,2.73,9.76,4.1C945.83,665.48,945.95,665.76,946.06,666.05z"/>
		<path class="st11" d="M1042.3,743.09c-0.11-0.31-0.22-0.63-0.33-0.94c1.03-2,2.07-4,3.1-6c1.3-1.69,2.6-3.38,3.9-5.07
			c-0.65,3.1-1.31,6.19-1.96,9.29c-0.1,0.04-0.21,0.09-0.31,0.14c0.08,0.18,0.17,0.36,0.25,0.54c-0.04,0.69-0.08,1.38-0.13,2.06
			C1045.31,743.09,1043.8,743.09,1042.3,743.09z"/>
		<path class="st3" d="M935.95,661.1c-3.01-0.68-6.01-1.37-9.02-2.05c-0.01-0.3-0.01-0.61-0.01-0.91c-0.66-1.03-1.33-2.05-1.99-3.08
			C928.6,657.07,932.27,659.08,935.95,661.1z"/>
		<path class="st22" d="M963.92,676.1c1.32-0.31,2.65-0.63,3.97-0.94c0.04,0.98,0.08,1.95,0.11,2.93
			C966.64,677.43,965.28,676.76,963.92,676.1z"/>
		<path class="st3" d="M968,678.09c-0.04-0.98-0.07-1.95-0.11-2.93c0,0,0.12-0.18,0.12-0.18c0.96,0.05,1.93,0.11,2.89,0.16
			c0,0,0-0.01,0-0.01c1.04,0.62,2.07,1.24,3.11,1.85c-1.72,0.38-3.43,0.75-5.15,1.13C968.58,678.11,968.29,678.1,968,678.09z"/>
		<path class="st11" d="M1046.77,744.24c0.05,0.22,0.06,0.43,0.01,0.65c0,0-0.31-0.31-0.31-0.31L1046.77,744.24z"/>
		<path class="st0" d="M866.42,439.01c0.07,1.1,0.15,2.2,0.22,3.3c-0.4,0.05-0.8,0.11-1.19,0.16c-0.19-1.13-0.38-2.26-0.57-3.39
			C865.39,439.05,865.91,439.03,866.42,439.01z"/>
		<path class="st15" d="M1095.01,663.7c5.32,3.55,10.7,7,15.93,10.68c3.36,2.37,4.1,5.11,0.09,7.74c-1-0.42-1.99-0.84-2.99-1.27
			c-3.63-3.11-6.9-6.84-10.95-9.23c-19.2-11.32-40.25-13.9-62.05-12.05c-2.87,0.24-5.66,1.5-8.49,2.29
			c-0.79-0.48-1.59-0.96-2.38-1.45c-1.79-2.85,0.94-2.46,2.12-2.63c6.28-0.96,12.6-1.74,18.9-2.57c6.94,0.24,13.87,0.48,20.81,0.72
			c3.7,0.6,7.4,1.21,11.1,1.81c1.3,0.28,2.6,0.56,3.9,0.85C1085.66,660.3,1090.34,662,1095.01,663.7z"/>
		<path class="st11" d="M1024.16,660.42c0.79,0.48,1.59,0.96,2.38,1.44c2.61,2.82,5.22,5.64,7.82,8.46
			c-1.82-0.48-3.87-0.57-5.39-1.52c-2.28-1.44-4.19-3.47-6.25-5.26C1023.21,662.51,1023.68,661.47,1024.16,660.42z"/>
		<path class="st24" d="M1065.99,655.94c-6.94-0.24-13.87-0.48-20.81-0.72c1.18-0.37,2.36-1.04,3.55-1.07
			c4.96-0.12,9.93-0.13,14.88,0.04C1064.42,654.21,1065.19,655.32,1065.99,655.94z"/>
		<path class="st11" d="M1020.44,661.49c-0.8-0.79-1.59-1.58-2.39-2.36C1018.85,659.91,1019.65,660.7,1020.44,661.49z"/>
		<path class="st8" d="M1080.99,658.6c-1.3-0.28-2.6-0.56-3.9-0.85C1078.38,658.03,1079.68,658.32,1080.99,658.6z"/>
		<path class="st11" d="M1022.6,663.41c-0.67-0.6-1.35-1.2-2.02-1.79C1021.25,662.21,1021.92,662.81,1022.6,663.41z"/>
		<path class="st8" d="M1094.98,661.11c-0.09-0.06-0.19-0.12-0.28-0.18c0.1,0.05,0.21,0.1,0.31,0.15
			C1095.02,661.08,1094.98,661.11,1094.98,661.11z"/>
		<path class="st23" d="M1108.04,680.85c1,0.42,1.99,0.84,2.99,1.27c-6.72,3.29-13.44,6.59-20.15,9.88
			c-9.5,0.54-19.01,1.12-28.51,1.57c-1.76,0.08-3.55-0.4-5.32-0.62c-0.56-0.08-1.12-0.15-1.68-0.23c-2.11-0.58-4.22-1.16-6.33-1.74
			c-1.05-0.05-2.1-0.1-3.15-0.14c0.1-4.84,2.11-5.92,7.07-5.14c10.46,1.65,21.09,3.24,31.62,3.09
			C1092.81,688.68,1101.56,687.43,1108.04,680.85z"/>
		<path class="st11" d="M1048.98,707.06c0.01,5.36,0.01,10.73,0.02,16.09c0-3.71,0-7.42,0-11.13c-0.67,0.01-1.35,0.03-2.02,0.04
			c0,5.05,0.2,10.12-0.09,15.15c-0.14,2.32-1.24,4.58-1.91,6.87c-0.04-11.31-0.08-22.62-0.11-33.93
			C1046.23,702.46,1047.61,704.76,1048.98,707.06z"/>
		<path class="st4" d="M1048.98,707.06c-1.38-2.3-2.75-4.6-4.13-6.9c-0.21-0.19-0.21-0.38-0.01-0.57c-0.27-1.15-0.55-2.29-0.82-3.44
			c0.1-1.64,0.2-3.29,0.31-4.93c0.51-0.13,1.03-0.26,1.54-0.38c1.05,0.05,2.1,0.1,3.15,0.14c0.32,1.36,0.63,2.72,0.95,4.07
			c-0.64,2.1-1.61,4.16-1.82,6.3C1047.98,703.22,1048.68,705.16,1048.98,707.06z"/>
		<path class="st4" d="M1044.97,734.09c0.67-2.29,1.78-4.55,1.91-6.87c0.29-5.04,0.09-10.1,0.09-15.15
			c0.67-0.01,1.35-0.03,2.02-0.04c0,3.71,0,7.42,0,11.13c-0.01,2.64-0.02,5.28-0.04,7.92c-1.3,1.69-2.6,3.38-3.9,5.07
			C1045.03,735.46,1045,734.78,1044.97,734.09z"/>
		<path class="st22" d="M1061.07,697.08c0.2-0.44,0.4-1.28,0.6-1.28c7.05-0.07,14.1-0.06,21.15-0.06c0,0.45,0.01,0.9,0.01,1.36
			c-6.63,0-13.25,0-19.88,0C1062.33,697.1,1061.7,697.09,1061.07,697.08z"/>
		<path class="st11" d="M1049.98,695.05c-0.32-1.36-0.63-2.72-0.95-4.07c2.11,0.58,4.22,1.16,6.33,1.75
			c-0.77,0.79-1.54,1.58-2.31,2.36C1052.03,695.08,1051,695.07,1049.98,695.05z"/>
		<path class="st22" d="M1053.05,695.09c0.77-0.79,1.54-1.57,2.31-2.36c0.56,0.07,1.12,0.15,1.68,0.23
			c-1.03,0.72-2.06,1.43-3.1,2.15C1053.65,695.1,1053.35,695.09,1053.05,695.09z"/>
		<path class="st5" d="M1046.94,741.04c-0.08-0.18-0.17-0.36-0.25-0.54c0.1-0.05,0.21-0.09,0.31-0.14
			C1046.99,740.59,1046.97,740.81,1046.94,741.04z"/>
		<path class="st20" d="M1045.87,690.84c-0.51,0.13-1.03,0.26-1.54,0.38c-1.02,0.97-2.87,1.88-2.94,2.93
			c-0.38,5.27-0.3,10.57-0.37,15.86c0.01,8.73,0.01,17.47,0.02,26.2c-0.08,0.95-0.15,1.9-0.23,2.84
			c-10.92-11.6-16.37-25.59-17.48-41.27c-0.12-1.75,2.42-3.69,3.73-5.55c3.27-1.83,6.53-3.65,9.8-5.48
			c0.58-2.51,1.17-5.02,1.75-7.53c-0.11-0.66-0.22-1.33-0.33-1.99c-0.2-0.51-0.4-1.03-0.6-1.55c-0.1-0.24-0.24-0.45-0.42-0.63
			c0,0,0.06-0.29,0.06-0.29l-0.29-0.05c-0.89-1.46-1.78-2.92-2.67-4.38c-2.61-2.82-5.22-5.64-7.83-8.46
			c2.83-0.79,5.62-2.05,8.49-2.29c21.8-1.85,42.85,0.73,62.05,12.05c4.06,2.39,7.32,6.12,10.95,9.23
			c-6.48,6.57-15.23,7.82-23.48,7.94c-10.53,0.15-21.16-1.44-31.62-3.09C1047.98,684.92,1045.98,686,1045.87,690.84z"/>
		<path class="st22" d="M969.04,450.16c-11.1-13.38-10.55-31.33,1.28-42.26c9.6-8.87,23.11-6.48,27.77,5.71
			c2.02,5.28,1.28,11.61,1.79,17.46c-4.99,6.67-9.99,13.34-14.98,20.01C979.51,452.65,974.19,452.82,969.04,450.16z M986.31,422.67
			l-0.1-0.08c1.13,1.09,2.25,2.17,3.38,3.26c0.5-0.16,0.99-0.31,1.49-0.47c0.24-1.81,0.49-3.62,0.73-5.43
			c-0.3-2.1-0.59-4.2-0.89-6.3c-1.23-0.85-2.46-1.69-3.69-2.54c-0.69,1.22-1.38,2.43-2.07,3.65c0,0-0.12,0.25-0.12,0.25
			c-0.67,1.94-1.57,3.85-1.85,5.85C983.13,421.3,985.22,422.06,986.31,422.67z M970.16,441.66c1.27,1.08,2.54,2.17,3.82,3.25
			c8.43-1.94,12.12-6.28,8.72-16.71c0.5-4.04-2.08-5.04-5.3-5.15c-4.71-0.16-10.37,5.52-10.36,10.73c0.01,2.95-1.77,7,3.28,8.04
			L970.16,441.66z"/>
		<path class="st25" d="M1038.62,679.21c-0.58,2.51-1.17,5.02-1.75,7.53c-7.32,2.38-14.35,1.48-21.27-1.65
			c-7.53-3.41-15.12-6.7-22.68-10.05l-0.23-0.13c0,0-0.26,0.05-0.26,0.05c-2.46-1.34-4.93-2.68-7.39-4.01c0,0,0,0.06,0,0.06
			c-0.67-0.46-1.33-0.92-2-1.38c-0.27-0.22-0.55-0.44-0.82-0.66c-5.04-3.11-10.08-6.21-15.12-9.32c-2.45-2.1-4.91-4.2-7.36-6.31
			c1.73,0.44,3.51,0.73,5.18,1.35c23.2,8.58,46.37,17.23,69.61,25.7C1035.6,680.81,1037.24,679.65,1038.62,679.21z"/>
		<path class="st26" d="M1025.78,451.41c1.01,0.82,2.35,1.45,2.95,2.51c1.27,2.22,2.05,4.73,3.23,7.01
			c7.19,13.95,17.92,17.8,32.41,11.82c2.58-1.06,5.34-1.68,9.15-2.85c-7.75,11.92-27.89,13.99-37.78,4.78
			c-2.55-2.37-4.55-2.65-7.81-2.07c-3.07,0.55-6.43-0.54-9.66-0.92c1.14-3.1,1.71-6.61,3.55-9.2
			C1025.28,457.64,1025.59,457.86,1025.78,451.41z"/>
		<path class="st10" d="M923.67,491.02c-7.14-2.84-13.46-6.6-15.73-14.65c-1.74-6.18-1.93-12.35,0.26-18.97
			c1.64,5.99,2.35,11.82,4.86,16.73c2.14,4.19,6.18,7.51,9.74,10.83c0.95,0.88,3.22,0.33,4.88,0.45
			C929.49,489.52,926.94,490.53,923.67,491.02z"/>
		<path class="st10" d="M913.16,510.25c1.24-3.14-1.2-3.62-3.2-4.36c-9.64-3.57-13.4-11.21-14.18-20.77
			c-0.13-1.61,0.62-3.28,1.53-5.01c4.09,10.12,7.42,20.51,19.95,22.87c1.09,1.03,2.19,2.06,2.83,2.66
			C917.92,507.09,915.54,508.67,913.16,510.25z"/>
		<path class="st10" d="M937.97,473.78c-14.44-6.12-19.18-15.83-14.27-30.91c1.22,4.65,2.07,8.55,3.28,12.33
			c2.42,7.54,6.69,13.25,15.27,14.25C944.19,474.24,939.29,472.24,937.97,473.78z"/>
		<path class="st24" d="M984.91,451.08c4.99-6.67,9.99-13.34,14.98-20.01c0.23,0.56,0.45,1.12,0.68,1.68
			c-1.49,3.05-2.68,6.3-4.52,9.12C993.34,446.03,990.59,450.4,984.91,451.08z"/>
		<path class="st25" d="M959.72,653.34c-1.22-0.77-2.43-1.53-3.65-2.3C957.28,651.81,958.5,652.57,959.72,653.34z"/>
		<path class="st19" d="M939.49,639.08c-0.85-0.85-1.7-1.7-2.55-2.55C937.79,637.38,938.64,638.23,939.49,639.08z"/>
		<path class="st25" d="M1037.69,675.68c0.2,0.52,0.4,1.03,0.6,1.55C1038.09,676.71,1037.89,676.19,1037.69,675.68z"/>
		<polygon class="st25" points="1037.05,674.71 1037.33,674.76 1037.27,675.05 		"/>
		<path class="st20" d="M812.58,434.94c-0.2-1.37-0.4-2.74-0.59-4.11c0.9-1.22,1.77-2.47,2.71-3.65c2-2.49,4.05-4.95,6.07-7.42
			C818.04,424.82,815.31,429.88,812.58,434.94z"/>
		<path class="st9" d="M821.89,418.9c2.56-2.62,5.21-1.65,7.86-0.19C827.13,418.77,824.51,418.84,821.89,418.9z"/>
		<path class="st1" d="M813.93,419.15c0.2-0.34,0.41-0.68,0.61-1.02C814.34,418.46,814.13,418.81,813.93,419.15z"/>
		<path class="st20" d="M964.82,575.79c0.05-0.55,0.1-1.1,0.14-1.65c3.66-1.07,7.26-2.39,10.98-3.16c8.76-1.82,17.62-3.2,26.36-5.15
			c2.72-0.61,5.17-2.47,7.74-3.76c2.26-0.5,4.52-0.99,6.78-1.5c1.53,8.54-1.82,15.55-6.92,22.01c-4.89,6.19-11.67,7.72-18.81,6.32
			C981.26,586.96,972.02,583.28,964.82,575.79z"/>
		<path class="st14" d="M1010.05,562.07c-2.57,1.29-5.02,3.15-7.74,3.76c-8.73,1.95-17.59,3.33-26.36,5.15
			c-3.72,0.77-7.32,2.09-10.98,3.16c0.8-1.02,1.45-2.72,2.43-2.95c9.56-2.2,19.17-4.16,28.77-6.19
			C1000.8,564.03,1005.42,563.05,1010.05,562.07z"/>
		<path class="st27" d="M992.92,675.04c7.56,3.34,15.15,6.64,22.68,10.05c6.91,3.13,13.95,4.04,21.27,1.65
			c-3.27,1.82-6.53,3.65-9.8,5.48c0,0-0.29-0.39-0.29-0.39c-3.29-0.94-6.57-1.88-9.86-2.83c-8.18-2.24-16.36-4.49-24.55-6.71
			c-1.74-0.47-3.51-0.84-5.27-1.25c-1.39-0.64-2.78-1.27-4.17-1.91c0,0,0.12-0.13,0.12-0.13c4.02,0.6,8.04,1.19,11.82,1.75
			C994.17,678.72,993.55,676.88,992.92,675.04z"/>
		<path class="st27" d="M970.91,675.15c-0.96-0.05-1.93-0.11-2.89-0.16c-7.32-2.98-14.64-5.95-21.96-8.93
			c-0.11-0.29-0.23-0.58-0.36-0.86c4.96,1.55,9.92,3.1,14.88,4.63c1.37,0.42,2.98,1.38,4.13,1.01
			C968.96,669.45,970,672.07,970.91,675.15z"/>
		<path class="st27" d="M967.1,659.67c5.04,3.11,10.08,6.21,15.12,9.32C977.47,668.99,967.93,663.11,967.1,659.67z"/>
		<path class="st27" d="M974.02,676.99c-1.04-0.62-2.07-1.24-3.11-1.85c4.54-0.28,8.93-0.07,12.13,3.86c0,0-0.12,0.13-0.12,0.13
			c-2.98-0.71-5.95-1.42-8.93-2.13L974.02,676.99z"/>
		<path class="st27" d="M985.04,670.96c2.46,1.34,4.92,2.68,7.39,4.01C989.02,675.38,986.05,674.98,985.04,670.96z"/>
		<path class="st3" d="M922.07,654.01c-1.05-0.91-2.1-1.82-3.15-2.73C919.97,652.19,921.02,653.1,922.07,654.01z"/>
		<path class="st27" d="M983.04,669.64c0.67,0.46,1.33,0.92,2,1.38C984.37,670.56,983.71,670.1,983.04,669.64z"/>
		<path class="st3" d="M924.45,654.97c-0.49-0.26-0.99-0.53-1.48-0.79C923.46,654.44,923.95,654.7,924.45,654.97z"/>
		<path class="st15" d="M1040.81,739.04c0.08-0.95,0.15-1.9,0.23-2.84c-0.01-8.73-0.01-17.47-0.02-26.2
			c0.08-5.29,0-10.59,0.37-15.86c0.07-1.04,1.92-1.95,2.94-2.93c-0.11,1.65-0.21,3.29-0.31,4.93c0.27,1.15,0.55,2.3,0.82,3.44
			c-0.2,0.19-0.2,0.38,0.01,0.57c0.04,11.31,0.08,22.62,0.11,33.93c0.03,0.68,0.06,1.37,0.09,2.05c-1.03,2-2.07,4-3.1,6
			C1041.58,741.11,1041.2,740.08,1040.81,739.04z"/>
		<path class="st11" d="M1016.92,689.01c3.29,0.94,6.57,1.88,9.86,2.83c-5.97-0.22-11.95-0.45-17.92-0.67
			c2.55-0.03,5.11-0.02,7.65-0.18C1016.69,690.97,1016.79,689.7,1016.92,689.01z"/>
		<path class="st3" d="M974,677c2.98,0.71,5.95,1.42,8.93,2.13c1.39,0.64,2.78,1.28,4.17,1.91C982.25,681.27,977.5,681.15,974,677z"
			/>
		<path class="st11" d="M1044.85,699.59c-0.27-1.15-0.55-2.3-0.82-3.44C1044.3,697.3,1044.57,698.45,1044.85,699.59z"/>
		<path class="st20" d="M1041.02,710c0.01,8.73,0.01,17.47,0.02,26.2C1041.03,727.47,1041.03,718.73,1041.02,710z"/>
		<path class="st28" d="M982.69,428.21c3.4,10.43-0.28,14.77-8.71,16.71c-1.27-1.08-2.54-2.17-3.82-3.26c0,0,0.16,0.16,0.16,0.16
			c-0.41-1.58-1.02-3.14-1.2-4.75c-0.53-4.62,0.91-8.5,4.93-11.11C977.66,423.62,980.15,426.13,982.69,428.21z"/>
		<path class="st28" d="M990.93,413.64c0.3,2.1,0.59,4.2,0.89,6.3c-1.87,0.88-3.73,1.76-5.6,2.64c0,0,0.1,0.08,0.09,0.08
			c-0.42-2.56-0.85-5.11-1.27-7.67c0,0,0.12-0.25,0.12-0.25C987.09,414.38,989.01,414.01,990.93,413.64z"/>
		<path class="st24" d="M982.69,428.21c-2.54-2.08-5.03-4.58-8.65-2.24c-4.02,2.6-5.45,6.49-4.93,11.11
			c0.18,1.61,0.79,3.17,1.2,4.75c-5.05-1.03-3.27-5.09-3.28-8.04c-0.01-5.21,5.65-10.88,10.36-10.73
			C980.61,423.16,983.19,424.17,982.69,428.21z"/>
		<path class="st24" d="M986.22,422.59c1.87-0.88,3.73-1.76,5.6-2.64c-0.24,1.81-0.49,3.62-0.73,5.44c-0.5,0.16-0.99,0.31-1.49,0.47
			C988.47,424.76,987.35,423.68,986.22,422.59z"/>
		<path class="st24" d="M990.93,413.64c-1.92,0.37-3.84,0.74-5.76,1.11c0.69-1.22,1.38-2.43,2.07-3.65
			C988.47,411.95,989.7,412.8,990.93,413.64z"/>
		<path class="st24" d="M985.05,415c0.42,2.56,0.84,5.11,1.27,7.67c-1.1-0.61-3.18-1.37-3.12-1.82
			C983.47,418.85,984.37,416.94,985.05,415z"/>
		<path class="st24" d="M970.16,441.66c1.27,1.09,2.54,2.17,3.82,3.26C972.7,443.83,971.43,442.75,970.16,441.66z"/>
	</g>
</g>
</svg>
